<svg xmlns="http://www.w3.org/2000/svg" viewBox="0 0 100 32" fill="none">
  <g>
    <rect width="100" height="32" rx="4" fill="#00B1EA"/>
    <path d="M20.5 8C16.916 8 14 10.916 14 14.5S16.916 21 20.5 21 27 18.084 27 14.5 24.084 8 20.5 8zm0 10.5c-2.761 0-5-2.239-5-5s2.239-5 5-5 5 2.239 5 5-2.239 5-5 5z" fill="white"/>
    <path d="M31 10h8v2h-8v-2zm0 3h8v2h-8v-2zm0 3h6v2h-6v-2z" fill="white"/>
    <text x="45" y="20" font-family="Arial, sans-serif" font-size="12" font-weight="bold" fill="white">MP</text>
  </g>
</svg>
