<svg width="64" height="40" viewBox="0 0 64 40" fill="none" xmlns="http://www.w3.org/2000/svg">
  <rect width="64" height="40" rx="8" fill="url(#grad2)"/>
  <defs>
    <linearGradient id="grad2" x1="0%" y1="0%" x2="100%" y2="100%">
      <stop offset="0%" style="stop-color:#0070BA;stop-opacity:1" />
      <stop offset="100%" style="stop-color:#003087;stop-opacity:1" />
    </linearGradient>
  </defs>
  <path d="M12 12h16c4 0 7 2.5 7 6.5s-3 6.5-7 6.5H20l-2 5H12l6-18z" fill="#00457C"/>
  <path d="M16 10h16c4 0 7 2.5 7 6.5s-3 6.5-7 6.5H24l-2 5H16l6-18z" fill="white"/>
  <path d="M20 8h16c4 0 7 2.5 7 6.5s-3 6.5-7 6.5H28l-2 5H20l6-18z" fill="#0070BA"/>
</svg>
